<svg width="62" height="62" viewBox="0 0 62 62" fill="none" xmlns="http://www.w3.org/2000/svg">
    <path d="M28.9874 1.28613L28.7188 3.78813L28.9874 1.28613ZM36.5651 5.45901L34.5942 7.02363L36.5651 5.45901ZM38.9111 13.7854L36.4132 13.4798L38.9111 13.7854Z" fill="white"/>
    <path d="M24.9267 38.8104C24.9267 41.2155 22.9762 43.1659 20.5645 43.1659C18.1595 43.1659 16.209 41.2155 16.209 38.8104C16.209 36.3987 18.1594 34.4482 20.5645 34.4482C22.9762 34.4482 24.9267 36.3987 24.9267 38.8104Z" fill="#9CC0FD"/>
    <path d="M22.3309 2.80246V7.20621H17.9272V2.80246C17.9272 1.58646 18.9129 0.600586 20.1291 0.600586C21.3452 0.600586 22.3309 1.58634 22.3309 2.80246ZM39.0472 36.9688C39.0472 38.2346 38.0212 39.2606 36.7554 39.2606H3.50269C2.23694 39.2606 1.21094 38.2346 1.21094 36.9688C1.21094 35.7031 2.23694 34.6771 3.50269 34.6771H36.7554C38.0212 34.6771 39.0472 35.7032 39.0472 36.9688Z" fill="white"/>
    <path d="M30.7019 15.7305C31.1011 23.5723 32.5277 27.0608 36.1273 34.6773H4.13281C7.73244 27.0608 9.15894 23.5723 9.55819 15.7305C9.68519 9.68091 13.8154 5.37741 20.1302 5.37891C26.4447 5.37728 30.5747 9.68078 30.7019 15.7305Z" fill="#9CC0FD"/>
    <path d="M11.2714 1.28613L11.54 3.78813L11.2714 1.28613ZM3.69366 5.45901L5.66453 7.02363L3.69366 5.45901ZM1.34766 13.7854L3.84553 13.4798L1.34766 13.7854ZM50.171 32.8358L52.7605 36.8026C53.5205 37.967 53.9333 39.3237 53.9505 40.714L53.9764 42.8049C53.9839 43.4105 54.1637 44.0015 54.4948 44.5086L55.5753 46.164L42.1072 54.9555L41.4077 53.8839C41.1581 53.5016 40.8295 53.1774 40.4439 52.9331C40.0583 52.6889 39.6247 52.5302 39.1725 52.4679L34.847 51.8719C34.3409 51.8021 33.8557 51.6246 33.4242 51.3512C32.9926 51.0778 32.6248 50.7149 32.3455 50.2871L29.8327 46.4375C28.5845 44.5254 29.1228 41.9635 31.0349 40.7154L31.4408 40.4505L34.3217 44.8638" fill="white"/>
    <path d="M58.1806 45.7271L60.6166 49.4589C60.7695 49.693 60.8231 49.9784 60.7655 50.252C60.708 50.5257 60.5442 50.7654 60.31 50.9182L44.518 61.2267C44.2838 61.3796 43.9985 61.4332 43.7248 61.3756C43.4511 61.3181 43.2115 61.1543 43.0586 60.9201L40.6226 57.1884C40.4698 56.9542 40.4162 56.6689 40.4737 56.3952C40.5312 56.1215 40.6951 55.8819 40.9293 55.729L56.7213 45.4205C56.9554 45.2676 57.2408 45.2141 57.5144 45.2716C57.7881 45.3291 58.0278 45.4929 58.1806 45.7271Z" fill="#9CC0FD"/>
    <path d="M46.6866 36.0418L45.5794 34.3457C44.8741 33.2653 45.1783 31.8178 46.2586 31.1126C47.339 30.4073 48.7865 30.7115 49.4918 31.7918L50.599 33.4881" fill="white"/>
    <path d="M42.4492 38.8077L39.9037 34.908C39.1402 33.7384 39.4695 32.1713 40.6391 31.4077C41.8087 30.6442 43.376 30.9734 44.1395 32.143L46.685 36.0427" fill="white"/>
    <path d="M38.2137 41.5726L34.1967 35.4188C33.4332 34.2491 33.7625 32.682 34.9321 31.9184C36.1017 31.1549 37.669 31.4841 38.4325 32.6538L42.4495 38.8076" fill="white"/>
    <path d="M35.247 46.2805L26.6811 33.158C25.9176 31.9884 26.2468 30.4213 27.4165 29.6577C28.5861 28.8942 30.1533 29.2234 30.9168 30.393L38.2141 41.572" fill="white"/>
    <path d="M3.50314 39.8683H15.2039C15.5036 42.3203 17.5945 44.2272 20.1265 44.2272C22.6618 44.2272 24.7555 42.3203 25.0555 39.8683H30.3358L30.6035 40.2784C28.498 41.7321 27.9176 44.6144 29.3241 46.7692L31.8374 50.6193C32.1641 51.1199 32.5945 51.5446 33.0995 51.8645C33.6045 52.1844 34.1723 52.3922 34.7645 52.4738L39.0905 53.0699C39.4565 53.1201 39.8073 53.2484 40.1193 53.4461C40.4314 53.6437 40.6973 53.9062 40.899 54.2156L41.2685 54.7818L40.5974 55.2199C39.8299 55.7206 39.609 56.7479 40.1135 57.5212L42.549 61.2526C43.0501 62.0202 44.078 62.2396 44.8504 61.7362L60.6425 51.4278C61.4096 50.9267 61.6264 49.8948 61.1253 49.1271L58.6891 45.3952V45.3949C58.188 44.6272 57.1549 44.4111 56.3884 44.9119L55.7548 45.3256L55.0044 44.1761C54.7363 43.7658 54.5909 43.2875 54.5853 42.7974L54.5598 40.7066C54.5417 39.2005 54.0943 37.7309 53.2701 36.4703L49.9999 31.4601C49.1129 30.1019 47.2859 29.7163 45.9256 30.6042C45.3966 30.9493 45.0098 31.4476 44.7909 32.0277L44.649 31.8104C43.7031 30.3621 41.7558 29.9532 40.3076 30.8984C39.6986 31.2961 39.2861 31.8744 39.068 32.5146L38.942 32.3217C38.112 31.0503 36.5101 30.5804 35.1519 31.1233C32.635 25.5303 31.6355 22.1094 31.3089 15.7084C31.1889 10.1522 27.9264 6.15681 22.9396 5.07444V2.80206C22.9396 1.25269 21.6791 -0.0078125 20.1295 -0.0078125C18.5805 -0.0078125 17.32 1.25269 17.32 2.80206V5.07394C12.3305 6.15656 9.06664 10.1537 8.95014 15.6992C8.57077 23.1538 7.28339 26.5637 3.74639 34.0687H3.50327C1.90439 34.0687 0.603516 35.3696 0.603516 36.9684C0.603266 38.5674 1.90414 39.8683 3.50314 39.8683ZM20.1265 43.0112C18.2668 43.0112 16.7238 41.6474 16.4331 39.8683H23.8263C23.5353 41.6474 21.99 43.0112 20.1265 43.0112ZM57.0531 45.9299C57.1524 45.8654 57.2732 45.8428 57.389 45.8671C57.5049 45.8914 57.6064 45.9607 57.6713 46.0597V46.0594L60.1068 49.7913C60.1715 49.8905 60.1942 50.0112 60.1699 50.1271C60.1457 50.243 60.0764 50.3445 59.9774 50.4094L44.1853 60.7178C44.086 60.7824 43.9652 60.8051 43.8493 60.7807C43.7334 60.7563 43.6319 60.6869 43.5671 60.5878L41.1316 56.8564C41.0994 56.8074 41.0773 56.7524 41.0664 56.6947C41.0555 56.6371 41.0561 56.5778 41.0682 56.5204C41.0802 56.4629 41.1036 56.4084 41.1368 56.36C41.17 56.3116 41.2124 56.2703 41.2616 56.2383L57.0531 45.9299ZM35.2643 32.4269C36.1536 31.8487 37.3453 32.0992 37.9241 32.9859L41.9414 39.1397C42.1193 39.4124 42.5136 39.4914 42.7828 39.3163C42.8496 39.2726 42.9072 39.2162 42.9523 39.1503C42.9973 39.0844 43.0289 39.0102 43.0453 38.932C43.0617 38.8539 43.0625 38.7733 43.0477 38.6948C43.033 38.6163 43.0028 38.5415 42.9591 38.4747L40.412 34.5731C39.8394 33.6921 40.0759 32.5014 40.9725 31.9163C41.8593 31.3374 43.0489 31.5837 43.6313 32.4751L46.1771 36.3747C46.3466 36.6347 46.7266 36.7411 47.0185 36.5513C47.0854 36.5076 47.143 36.4512 47.188 36.3853C47.233 36.3193 47.2647 36.2452 47.281 36.167C47.2974 36.0889 47.2982 36.0083 47.2835 35.9298C47.2687 35.8513 47.2386 35.7765 47.1949 35.7097L46.0865 34.0121C45.567 33.2136 45.7894 32.1443 46.5904 31.6222C47.386 31.1021 48.4606 31.3268 48.9819 32.1244L52.2516 37.1343C52.9494 38.2017 53.3282 39.4459 53.3435 40.7211L53.369 42.8122C53.3777 43.5333 53.5919 44.2369 53.9865 44.8404L54.7346 45.9869L42.2846 54.1134L41.9178 53.5512C41.6208 53.096 41.2295 52.7099 40.7704 52.4191C40.3113 52.1282 39.7951 51.9394 39.2566 51.8653L34.9306 51.2692C34.5108 51.2114 34.1083 51.0642 33.7503 50.8374C33.3923 50.6106 33.0871 50.3096 32.8555 49.9547L30.3429 46.1049C29.3026 44.5111 29.7206 42.3802 31.2655 41.2936L34.7383 46.6128C34.781 46.6815 34.8371 46.7409 34.9032 46.7877C34.9692 46.8344 35.044 46.8675 35.123 46.885C35.202 46.9024 35.2837 46.9039 35.3633 46.8894C35.4429 46.8749 35.5188 46.8447 35.5866 46.8004C35.6543 46.7562 35.7126 46.6989 35.7579 46.6318C35.8032 46.5648 35.8346 46.4894 35.8504 46.41C35.8662 46.3306 35.866 46.2489 35.8498 46.1696C35.8336 46.0904 35.8017 46.0151 35.756 45.9483L27.1903 32.8256C26.6114 31.9388 26.8625 30.7461 27.7495 30.1668C28.6365 29.5879 29.8294 29.8391 30.4083 30.7252L37.7059 41.9043C37.8908 42.1884 38.2824 42.2536 38.5473 42.0812C38.6141 42.0375 38.6717 41.9812 38.7168 41.9152C38.7618 41.8493 38.7934 41.7752 38.8098 41.697C38.8262 41.6189 38.827 41.5383 38.8122 41.4599C38.7974 41.3814 38.7673 41.3066 38.7236 41.2398L34.7064 35.0854C34.1273 34.1987 34.3779 33.0059 35.2643 32.4269ZM18.5359 2.80206C18.5359 1.92331 19.2508 1.20819 20.1295 1.20819C21.0089 1.20819 21.7236 1.92331 21.7236 2.80206V4.87206C21.2068 4.81194 20.68 4.77031 20.133 4.77031H20.1259C19.5791 4.77031 19.0525 4.81194 18.5359 4.87194V2.80206ZM10.1654 15.7428C10.2876 9.90644 14.29 5.98631 20.1265 5.98631C20.1285 5.98606 20.1305 5.98606 20.1325 5.98631C25.9683 5.98631 29.9713 9.90669 30.0936 15.7428C30.0936 15.7488 30.0943 15.7549 30.0943 15.7609C30.434 22.4387 31.4769 25.9491 34.1211 31.7956C33.7648 32.1444 33.516 32.5693 33.3609 33.0248L31.426 30.0607C30.4808 28.6123 28.5328 28.2029 27.0846 29.1487C25.6359 30.0942 25.2269 32.0419 26.1726 33.4903L26.5501 34.0686H5.09077C8.52252 26.7544 9.78302 23.2621 10.1654 15.7428ZM3.50314 35.2847H27.3438L29.542 38.6523H3.50314C2.57452 38.6523 1.81927 37.8971 1.81927 36.9684C1.81927 36.0398 2.57452 35.2847 3.50314 35.2847ZM28.719 4.39594C28.869 4.39583 29.0136 4.34029 29.125 4.24001C29.2365 4.13973 29.307 4.00178 29.3229 3.85269L29.5913 1.35044C29.5998 1.27106 29.5926 1.19077 29.5701 1.11417C29.5476 1.03757 29.5102 0.966162 29.4601 0.90402C29.4099 0.841879 29.348 0.790225 29.2779 0.752012C29.2078 0.713798 29.1309 0.689774 29.0515 0.681313C28.7084 0.643938 28.418 0.887312 28.3824 1.22106L28.114 3.72331C28.1049 3.80817 28.1137 3.89401 28.14 3.97522C28.1662 4.05643 28.2093 4.1312 28.2664 4.19466C28.3235 4.25812 28.3933 4.30884 28.4713 4.34352C28.5492 4.3782 28.6337 4.39606 28.719 4.39594ZM36.1864 4.98256L34.2158 6.54706C34.1532 6.59669 34.1011 6.65815 34.0623 6.72795C34.0235 6.79774 33.9989 6.87449 33.9897 6.95381C33.9806 7.03314 33.9873 7.11348 34.0092 7.19024C34.0312 7.267 34.0681 7.33869 34.1178 7.40119C34.218 7.52751 34.3644 7.60883 34.5246 7.62726C34.6848 7.64568 34.8458 7.5997 34.9721 7.49944L36.9428 5.93494C37.0053 5.88531 37.0575 5.82385 37.0963 5.75405C37.135 5.68426 37.1597 5.60751 37.1688 5.52819C37.1779 5.44886 37.1713 5.36852 37.1493 5.29176C37.1273 5.215 37.0905 5.14331 37.0408 5.08081C36.9912 5.01814 36.9298 4.96587 36.86 4.92699C36.7902 4.88812 36.7134 4.86341 36.634 4.85428C36.5546 4.84515 36.4742 4.85178 36.3974 4.8738C36.3206 4.89581 36.2489 4.93277 36.1864 4.98256ZM35.81 13.4056C35.8002 13.4848 35.8062 13.5653 35.8275 13.6422C35.8488 13.7192 35.8851 13.7912 35.9343 13.8541C35.9835 13.9171 36.0446 13.9697 36.1142 14.009C36.1837 14.0482 36.2603 14.0734 36.3396 14.0831L38.8369 14.3886C38.9969 14.4081 39.1581 14.3632 39.285 14.2639C39.4119 14.1646 39.4942 14.0189 39.5138 13.8589C39.5236 13.7797 39.5176 13.6992 39.4963 13.6223C39.4749 13.5453 39.4387 13.4733 39.3895 13.4104C39.3403 13.3474 39.2791 13.2948 39.2096 13.2555C39.14 13.2163 39.0634 13.1911 38.9841 13.1814L36.4869 12.8759C36.4076 12.8659 36.3272 12.8718 36.2501 12.893C36.1731 12.9143 36.1011 12.9506 36.0382 12.9998C35.9752 13.049 35.9227 13.1102 35.8835 13.1799C35.8444 13.2495 35.8194 13.3262 35.81 13.4056ZM11.5399 4.39594C11.6252 4.39604 11.7096 4.37816 11.7876 4.34348C11.8656 4.30879 11.9354 4.25807 11.9925 4.19462C12.0495 4.13116 12.0926 4.0564 12.1189 3.9752C12.1451 3.89399 12.154 3.80817 12.1449 3.72331L11.8765 1.22106C11.8409 0.887437 11.5423 0.647563 11.2074 0.681313C11.128 0.68979 11.0511 0.713824 10.981 0.752043C10.9109 0.790261 10.849 0.841915 10.7989 0.904053C10.7488 0.966191 10.7114 1.0376 10.6889 1.11419C10.6663 1.19078 10.6591 1.27106 10.6676 1.35044L10.936 3.85269C10.9519 4.00178 11.0224 4.13973 11.1339 4.24001C11.2453 4.34029 11.3899 4.39583 11.5399 4.39594ZM6.14164 7.40106C6.19133 7.33856 6.22821 7.26688 6.25017 7.19012C6.27214 7.11335 6.27876 7.03301 6.26966 6.95369C6.26056 6.87437 6.23591 6.79761 6.19713 6.72782C6.15835 6.65803 6.10619 6.59656 6.04364 6.54694L4.07239 4.98244C4.00989 4.93268 3.93818 4.89575 3.86137 4.87375C3.78457 4.85176 3.70418 4.84513 3.62481 4.85426C3.54545 4.86339 3.46866 4.88808 3.39885 4.92694C3.32905 4.96579 3.26759 5.01804 3.21802 5.08069C3.16833 5.14319 3.13145 5.21487 3.10949 5.29163C3.08752 5.3684 3.0809 5.44874 3.09 5.52806C3.0991 5.60738 3.12375 5.68414 3.16253 5.75393C3.20131 5.82372 3.25347 5.88519 3.31602 5.93481L5.28727 7.49931C5.3498 7.54899 5.42152 7.58586 5.49831 7.60781C5.5751 7.62976 5.65547 7.63636 5.73481 7.62723C5.81416 7.61811 5.89093 7.59344 5.96073 7.55463C6.03054 7.51582 6.09201 7.46364 6.14164 7.40106ZM0.745266 13.8588C0.76483 14.0188 0.847123 14.1644 0.974052 14.2638C1.10098 14.3631 1.26216 14.4079 1.42214 14.3884L3.92002 14.0829C3.99931 14.0733 4.07592 14.0481 4.14547 14.0088C4.21502 13.9696 4.27614 13.917 4.32533 13.854C4.37452 13.7911 4.41083 13.7191 4.43216 13.6421C4.45349 13.5651 4.45943 13.4847 4.44964 13.4054C4.40927 13.0723 4.10464 12.8339 3.77277 12.8758L1.27489 13.1813C1.1956 13.1909 1.11899 13.2161 1.04944 13.2554C0.979889 13.2947 0.918769 13.3473 0.869576 13.4102C0.820382 13.4732 0.784082 13.5452 0.762751 13.6221C0.74142 13.6991 0.735478 13.7795 0.745266 13.8588Z" fill="#5C8FFC"/>
    </svg>
    